<svg xmlns="http://www.w3.org/2000/svg" viewBox="0 0 500 196.12"><defs><style>.cls-1{opacity:0;}.cls-2{fill:#fff;}</style></defs><title>logoDiscover</title><g id="Capa_2" data-name="Capa 2"><g id="Capa_2-2" data-name="Capa 2"><rect class="cls-1" width="500" height="196.12"/></g><g id="discover"><g id="Capa_2-3" data-name="Capa 2"><g id="Capa_1-2" data-name="Capa 1-2"><path class="cls-2" d="M41.76,60.53H21.88v74.14H41.76c22.28,0,41.95-7.65,41.95-37.08S64,60.53,41.76,60.53ZM44.56,123H36.45V72.22h8.11c12.18,0,23.94,9.23,23.94,25.38S56.74,123,44.56,123Z"/><path class="cls-2" d="M255.57,59.26c-23.1,0-38.25,15.39-38.25,38.14S232.26,136,255.57,136c23,0,37.59-16.15,37.59-38.56S278.37,59.26,255.57,59.26Z"/><polygon class="cls-2" points="320.04 99.73 303.83 60.52 288.21 60.52 316.54 134.73 321.82 134.73 350.3 60.52 335.16 60.52 320.04 99.73"/><rect class="cls-2" x="89.51" y="60.52" width="14.62" height="74.21"/><path class="cls-2" d="M124.19,81.24c0-7.41,5.57-9,10.8-8.31,5.7.72,11.1,4,16.12,7.17V65.89a25,25,0,0,0-16.72-6.65C121.6,59.24,109,65.3,109,81.88c0,24.54,31.87,18.69,31.87,32.83,0,6.7-6.72,8.68-12.91,7.58-5.64-1-13-6.14-18-8.9v15c6.3,4.25,10.88,6.65,18.78,7.54,14.6,1.63,27.29-6.17,27.29-22.43C156.05,88.68,124.19,94.11,124.19,81.24Z"/><path class="cls-2" d="M443.81,105.63c-1.46-3.28-3.76-7.31-7.73-7.63v-.21a16.85,16.85,0,0,0,15-17.21c0-20.61-18.63-20.06-34.25-20.06H401v74.21h14.63V103.84h4.7c6.17,0,8,2.12,10.14,7.63l8.77,23.08h16.3ZM420.38,92.14h-4.77V72.22h4.77c7.27,0,15.35.75,15.35,9.64C435.74,91.08,427.54,92.14,420.38,92.14Z"/><polygon class="cls-2" points="368.63 102.19 394.59 102.19 394.59 90.49 368.63 90.49 368.63 72.21 396.96 72.21 396.96 60.52 354.01 60.52 354.01 134.73 397.14 134.73 397.14 123.03 368.63 123.03 368.63 102.19"/><path class="cls-2" d="M213.63,127.26c-3.54,4.59-12.37,7.41-18.34,7.83-22.58,1.59-37.77-11.08-37.77-36.15,0-25.38,13.23-40.1,37.87-38.95,4.79.23,12.62,1.84,17.92,6.18v14.3c-6.18-3.85-12.58-6.58-18-6.81-15-.61-22.59,9-22.59,24.22s7.09,23.56,22.6,23c6-.22,15.08-5.12,18.3-7.8v14.2Z"/><circle class="cls-2" cx="472.47" cy="66.62" r="6.39" transform="translate(318.18 518.13) rotate(-79.16)"/><path class="cls-2" d="M477.29,66.62a4.83,4.83,0,1,0-4.82,5.14A4.91,4.91,0,0,0,477.29,66.62Z"/><path class="cls-2" d="M470,63h2.69c1.74,0,2.66.59,2.66,2.12A1.8,1.8,0,0,1,473.47,67l1.94,3.18H474l-1.89-3.11h-.82v3.11H470V63Z"/><path class="cls-2" d="M471.35,66.07h1.19c.79,0,1.48-.12,1.48-1.08s-.78-1-1.47-1h-1.2Z"/></g></g></g></g></svg>