<svg xmlns="http://www.w3.org/2000/svg" viewBox="0 0 500 196.12"><defs><style>.cls-1,.cls-2{fill:#fff;}.cls-1{opacity:0;}</style></defs><title>LogoAmericanExpress</title><g id="Capa_2" data-name="Capa 2"><g id="Capa_3" data-name="Capa 3"><rect class="cls-1" width="500" height="196.12"/></g><g id="Capa_2-2" data-name="Capa 2"><g id="Capa_2-3" data-name="Capa 2"><g id="american"><g id="Capa_2-2-2" data-name="Capa 2-2"><g id="Capa_1-2" data-name="Capa 1-2"><polygon class="cls-2" points="258.61 54.66 258.61 48.53 235.73 48.53 235.73 77.54 258.61 77.54 258.61 71.41 242.67 71.41 242.67 65.69 258.19 65.69 258.19 59.98 242.67 59.98 242.67 54.66 258.61 54.66"/><rect class="cls-2" x="294.57" y="48.53" width="6.95" height="28.61"/><path class="cls-2" d="M371.38,111.05c-1.63-1.68-4.09-2.43-7.76-2.43h-3.68a5.2,5.2,0,0,1-2.43-.41c-.83-.4-1.63-.84-1.63-2,0-.84,0-1.68.84-2a6.09,6.09,0,0,1,2.86-.42h12.67v-7H358.72c-7.33,0-9.85,4.49-9.85,8.58,0,9,7.77,8.58,14.3,9a3.46,3.46,0,0,1,2.46.84,3,3,0,0,1,0,4.09c-.84.83-1.63.83-2.87.83H349.71v6.13h13.07c7,0,10.63-2.86,10.63-9C373.42,114.31,372.61,112.27,371.38,111.05Z"/><path class="cls-2" d="M400.27,115.7a8.79,8.79,0,0,0-5.72-6.45,12.7,12.7,0,0,0-4.37-.65H386.5a5.2,5.2,0,0,1-2.43-.41c-1.21-.41-1.67-.83-1.67-2a3.11,3.11,0,0,1,.84-2,5.94,5.94,0,0,1,2.86-.41h12.66V96.75H385.28a14.87,14.87,0,0,0-2.11.15c-5.46,1-7.7,4.55-7.7,8.43,0,9,7.77,8.58,14.3,9a3.37,3.37,0,0,1,2.43.84,3,3,0,0,1,0,4.09c-.83.83-1.63.83-2.86.83h-13v6.13h13.07c4.09,0,6.95-1.21,8.58-2.86a8.31,8.31,0,0,0,2.43-6.13A9.7,9.7,0,0,0,400.27,115.7Z"/><polygon class="cls-2" points="345.64 103.29 345.64 97.16 322.76 97.16 322.76 126.17 345.64 126.17 345.64 120.04 329.71 120.04 329.71 114.32 345.23 114.32 345.23 108.6 329.71 108.6 329.71 103.29 345.64 103.29"/><path class="cls-2" d="M219.38,48.53l-8.17,19.63-.13.43-3.7-8.43-5.17-11.25h0L202,48.5H191.19V75.88L179.75,48.53H169.53l-12.09,28.6h7.19l1.5-3.22L167.48,71h13.94l2.86,6.13h13.89V54.68l9.77,22.45h6l9.48-21.52h0l.41-.94V77.11h6.54V48.53ZM170,64.87l4.49-11.43,4.44,11.43Z"/><path class="cls-2" d="M374.24,48.91V69L362.4,48.91H352.17v27.4l-3-7.21-8.4-20.19H330.52l-8.44,20.2-.94,2.3h-2.85a6.41,6.41,0,0,1-4.91-1.67c-1.67-1.68-2-3.68-2-6.95,0-2.86.84-5.31,2-6.54a7.59,7.59,0,0,1,5.35-1.59h6.53V48.53h-6.55c-4.49,0-8.17.84-10.22,3.27-2.85,3.27-3.69,7.36-3.69,11.44,0,5.31,1.22,8.58,3.68,11s6.54,3.26,9.81,3.26h7.76L328.48,71h14.3L344,74l1.27,3.14h13.84V73.41h.05V55.46l13.07,21.65h9V48.91ZM330.93,64.82l4.91-11.45,4.49,11.45Z"/><path class="cls-2" d="M289.65,70.68v-.05a.24.24,0,0,1,0-.12,6.8,6.8,0,0,0-.06-.9v-.22a3.1,3.1,0,0,0-.09-.61v-.2a2.64,2.64,0,0,0-.15-.6l0-.12a2.79,2.79,0,0,0-.22-.61,5.85,5.85,0,0,0-.83-1.51,6.12,6.12,0,0,0-.4-.49h-.11a5.52,5.52,0,0,0-2.51-1.55,8.11,8.11,0,0,0,4.89-7.53c0-3.15-1.25-5.15-3.26-6.35s-4.5-1.21-8.17-1.21H263.11V77.13h6.94V71h0V66.92h7.35c1.93,0,3.09,0,3.7.4a3.51,3.51,0,0,1,1.21.84,5.79,5.79,0,0,1,1,2.37h0a15.85,15.85,0,0,1,.24,2.57h0v4h6.12V70.68ZM282.25,60a3.61,3.61,0,0,1-.33.44l-.09.1h0a1.39,1.39,0,0,1-.34.24,8,8,0,0,1-3.26.41h-8.18V54.66h8.17a8.06,8.06,0,0,1,3.27.41,2.3,2.3,0,0,1,1.24,1.37h0v.1a2.41,2.41,0,0,0,.07.37A4.53,4.53,0,0,1,282.25,60Z"/><path class="cls-2" d="M415.11,118a26.08,26.08,0,0,0-2-10V90.65a9.82,9.82,0,0,0-9.77-9.81h-6.13v-38A9.82,9.82,0,0,0,387.35,33H369a10,10,0,0,0-1.22.08,8.61,8.61,0,0,0-1.24-.08H347.25a8.11,8.11,0,0,0-1.21.08,10.16,10.16,0,0,0-1.23-.08H318.67a39.21,39.21,0,0,0-7.72.73,9.9,9.9,0,0,0-3.72-.73H288.81a9.75,9.75,0,0,0-2.94.45A25.44,25.44,0,0,0,281.1,33H215.29a9.78,9.78,0,0,0-4.5,1.1,9.7,9.7,0,0,0-4.48-1.1H185.46a8.43,8.43,0,0,0-1,.06,9.24,9.24,0,0,0-1-.06h-18a9.82,9.82,0,0,0-9,6l-8.13,19.15-9.35,20.7-.1.23-.17.41a9.8,9.8,0,0,0,9,13.61H169a9.81,9.81,0,0,0,5.19-1.46,9.74,9.74,0,0,0,5.17,1.48h15.53v38.84a9.82,9.82,0,0,0,9.8,9.81h36a9.84,9.84,0,0,0,5.51-1.67,9.77,9.77,0,0,0,5.52,1.67h22.88a9.73,9.73,0,0,0,5.46-1.67,9.77,9.77,0,0,0,6,2.05h18.42a7,7,0,0,0,1-.05,7.25,7.25,0,0,1,1,.05H362a34,34,0,0,0,6.12-.56,9.86,9.86,0,0,0,3.27.56H389c4.11,0,10.11-.37,15.07-3.56A23.46,23.46,0,0,0,415,120.27a5,5,0,0,1,.06-.56c0-.41,0-.81,0-1.22A4,4,0,0,0,415.11,118ZM203,78.36v4.88h-23.7L176.9,76.7h-5.33l-2.42,6.13-.15.41H147.7l.17-.41L157.27,62l8.17-19.21h18l2,4.91V42.81h20.84L210.79,53l4.5-10.22H281.1a12,12,0,0,1,7.76,2.43V42.81h18.42v2.43a24.84,24.84,0,0,1,11.44-2.43h26.13l2.35,4.91V42.81h19.26l2.42,4.91V42.81H387.3V82.86H368.13l-3.68-6.13v6.13H340.77l-2.43-6.53h-5.73l-2.41,6.53H317.94a24.38,24.38,0,0,1-11-2.43v2.43H277.4v-9c0-1.22,0-1.22-.84-1.22h-.84V83.24H219V78.36l-2.05,4.88H205.08Zm202.22,40.88a13.73,13.73,0,0,1-6.49,11c-2.43,1.67-6.13,2-9.81,2H371.37v-2.43c-2,1.68-5.71,2.43-9.39,2.43H306.41v-9.4c0-1.22,0-1.22-1.22-1.22h-.83v10.63H285.94v-11c-2.87,1.22-6.54,1.22-9.4,1.22h-2.06v9.43H251.66L246.54,126l-5.91,5.91h-36V90.65h36.79l5.28,6.12,5.73-6.12H277c2.28,0,6.7.36,8.93,2h0a3.47,3.47,0,0,1,.46.4V90.65h22.07c2.05,0,6.54.41,9,2.42V90.65h33.49v2.42c1.67-1.67,5.31-2.42,8.17-2.42H377.9v2.42h0l.51-.37h0c1-.69,3.19-2,5.09-2h19.68v1.22h0v18.42a15.52,15.52,0,0,1,2,7.76v.79h0A.76.76,0,0,1,405.25,119.24Z"/><path class="cls-2" d="M288.09,102.88c-1.78-4.25-6.49-5.32-10.69-5.32H255.75l-8.59,9.4-.21.21-1.52-1.67-7.28-8H211.61v28.61h26.15l9-9.38.38.44h0l7.87,9h13.39v-4.49h0v-6.18h8.17c6.12,0,11.85-1.63,11.85-9.81A11.34,11.34,0,0,0,288.09,102.88ZM234.5,120.46H217.76v-6.15h15.12v-5.72H217.74v-5.31h17.17l7.35,8.61Zm27,3.27-10.63-11.84,10.62-11.45Zm15.91-13.07h-9v-7.33H277a4.13,4.13,0,0,1,4.49,3.68c0,2.41-1.61,3.66-4.09,3.66Z"/><path class="cls-2" d="M318.64,119.38a1.69,1.69,0,0,0,0-.45v-.34a1.65,1.65,0,0,0,0-.32,1.49,1.49,0,0,1-.05-.36v-.15a10.18,10.18,0,0,0-.36-1.34v0c-.06-.15-.12-.29-.18-.41a5.6,5.6,0,0,0-.44-.84c-.41-.84-1.68-1.62-3.68-2.43a8.11,8.11,0,0,0,4.84-7.74,7.23,7.23,0,0,0-3.67-6.54c-2.05-1.22-4.91-1.22-8.17-1.22H291.3v29h6.95V115.53h7.35c2.42,0,4.08,0,4.9,1.21,1.22,1.22,1.22,4.08,1.22,5.72v3.68h6.95v-6.52ZM311.31,107a3.25,3.25,0,0,1-1.21,2.86,7.54,7.54,0,0,1-3.26.42h-8.2v-6.55h8.18a8,8,0,0,1,3.26.41A2.27,2.27,0,0,1,311.31,107Z"/></g></g></g></g></g></g></svg>