<svg xmlns="http://www.w3.org/2000/svg" viewBox="0 0 500 196.12"><defs><style>.cls-1{opacity:0;}.cls-2{fill:#fff;}</style></defs><title>logoVisa</title><g id="Capa_2" data-name="Capa 2"><g id="Capa_2-2" data-name="Capa 2"><rect class="cls-1" width="500" height="196.12"/></g><g id="visa"><polygon class="cls-2" points="255.53 103.91 278.5 28.17 298.99 28.17 276.02 103.91 255.53 103.91"/><path class="cls-2" d="M246.37,28.2,227.93,60.3c-4.7,8.42-7.38,12.66-8.76,18H219c.33-6.74-.6-15-.69-19.69L216.16,28.2H181.65l-.36,2c8.87,0,14.13,4.43,15.57,13.56l6.73,60.11h21.28L267.72,28.2Z"/><path class="cls-2" d="M405.76,103.91l-.58-11.25H379.59l-5.23,11.27H352.1l40.36-75.6h27.32l6.82,75.6Zm-2.35-44.67a169.12,169.12,0,0,1,0-17.73h-.3c-1.25,3.75-6.6,15.05-9,20.68l-7.66,16.45h18l-1-19.42Z"/><path class="cls-2" d="M320.52,106.07a57.5,57.5,0,0,1-30.94-8.67l9.77-14.92c6.16,3.44,11,7.38,22.16,7.38,3.57,0,7-.93,9-4.31,2.85-4.93-.65-7.58-8.66-12.11l-4-2.57c-11.82-8.12-17-15.81-11.42-29.26C310,33,319.47,26.49,335,26.49a45.77,45.77,0,0,1,26.59,9.17L350.45,48.85c-5.72-4.62-10.46-7-15.89-7-4.32,0-7.6,1.67-8.74,3.92-2.13,4.22.69,7.11,6.93,11l4.7,3c14.41,9.09,17.84,18.62,14.24,27.52C345.47,102.6,333.31,106,320.59,106Z"/><path class="cls-2" d="M200.1,169.79c53-22.71,127.37-43.3,225.87-22.68l1-25c-103.91-11.35-178.49,21.74-226.9,45.14v2.52Z"/></g></g></svg>