<svg xmlns="http://www.w3.org/2000/svg" viewBox="0 0 500 196.12"><defs><style>.cls-1{opacity:0;}.cls-2,.cls-3{fill:#fff;}.cls-2{stroke:#000;stroke-miterlimit:10;stroke-width:5px;}</style></defs><title>logoMasterCard</title><g id="Capa_2" data-name="Capa 2"><g id="Capa_2-2" data-name="Capa 2"><rect class="cls-1" width="500" height="196.12"/></g><g id="master"><circle class="cls-2" cx="289.5" cy="74.44" r="50.21"/><circle class="cls-2" cx="366.21" cy="74.44" r="50.21"/><path class="cls-3" d="M395.76,168l4.11-21.51h5.06l.64,2.21a7.4,7.4,0,0,1,5.69-2.21l-1.58,5.69c-1.58,0-4.1-.31-6,6a.29.29,0,0,0,0,.09L401.77,168h-6"/><path class="cls-3" d="M310,141.66h4.66a.83.83,0,0,1,.81,1l-.82,3.69a.81.81,0,0,0,.8,1h1.12a.83.83,0,0,1,.8,1l-.59,2.78a.83.83,0,0,1-.81.65H314.5a.83.83,0,0,0-.81.68l-1.46,7.86c-.28,1.4-.07,2.8,2.16,2.67a.82.82,0,0,1,.86.93l-.44,3.31a.84.84,0,0,1-.41.61,7.82,7.82,0,0,1-4.07.71c-1.26,0-5.69-1-4.74-6.65L310,141.66"/><path class="cls-3" d="M301.84,152.73l1-3.65a.83.83,0,0,0-.56-1,17.43,17.43,0,0,0-4.91-.71c-1,0-7.91,0-8.86,5.06-.95,4.12.63,5.7,1.9,6.33,2.21.95,3.48,1.9,4.74,2.53a1.64,1.64,0,0,1-.63,3.16,27.14,27.14,0,0,1-6.77-.39.81.81,0,0,0-1,.62l-.6,2.76a.83.83,0,0,0,.66,1,29.42,29.42,0,0,0,6.13.46c1.58,0,8.54.32,9.49-6a5.05,5.05,0,0,0-1.81-5.29.72.72,0,0,0-.2-.14c-1.24-.65-2.77-1.85-4-2.16-1.21-.6-2.13-2.36-.29-3.07a.91.91,0,0,1,.49,0c1.1.27,3.69.28,5.18.58"/><path class="cls-3" d="M261.88,168.07l4.87-24.95a.82.82,0,0,0-.81-1h-8.27a.82.82,0,0,0-.75.49L251.49,155a.82.82,0,0,1-1.57-.26L249,142.89a.82.82,0,0,0-.82-.75h-7.73a.81.81,0,0,0-.81.66l-4.74,24.29a.82.82,0,0,0,.81,1h4a.82.82,0,0,0,.81-.66L243,155a.83.83,0,0,1,1.63.1l1,12.19a.84.84,0,0,0,.83.75h4.08a.82.82,0,0,0,.75-.48l5.14-11.47a.82.82,0,0,1,1.56.49l-2,10.49a.82.82,0,0,0,.8,1h5"/><path class="cls-3" d="M372.56,149C371,148,370,148,368.13,148a7.82,7.82,0,0,0-7,7c-.91,6,2.82,8.92,8.41,7.49a.82.82,0,0,1,1,.56l1.15,3.91a.84.84,0,0,1-.46,1,15.53,15.53,0,0,1-6.29,1c-6,0-12.65-5.37-9.81-16.44,2.22-7.91,9.17-11.07,13.29-10.76s6.11,1.52,7.38,2.88a.81.81,0,0,1,0,1.14L372.56,149"/><path class="cls-3" d="M335.67,159.37a.82.82,0,0,0,.81-.68c.66-3.8,1.48-11.34-8-11.34s-10.75,9.49-10.75,10.76c-.32,1.26-.32,10.75,9.8,10.75a29.15,29.15,0,0,0,7.14-.79.8.8,0,0,0,.55-.61l.59-2.74a.82.82,0,0,0-.93-1,41.34,41.34,0,0,1-5.45.38c-2.08,0-5.55,0-5.45-3.93a.85.85,0,0,1,.83-.82Zm-6.9-7.9c1.93,0,2.66,1.21,2.6,3a.83.83,0,0,1-.83.8h-5.37a.82.82,0,0,1-.76-1.14A4.35,4.35,0,0,1,328.77,151.47Z"/><path class="cls-3" d="M277.59,146.56c-1.27-.31-3.16-.31-7,.32l-.95,4.74c1.58,0,5.38-.63,7.28-.63,1.73,0,4-.26,3.64,2.12a.83.83,0,0,1-.86.7c-2.83-.18-11.48-.66-12.91,7.62-.63,4.43,3.17,6.64,6,6.64s3.8-.63,4.75-1.26l.63,1.26h5.38l2.21-11.7C286.45,153.52,287.39,146.56,277.59,146.56Zm1.58,13.92a4.3,4.3,0,0,1-5.06,2.53c-2.21-.63-1.58-2.84.32-4.11s4.11-.63,5.06-.63Z"/><path class="cls-3" d="M428.71,142.33l-1.17,6.09a.82.82,0,0,1-1.39.43,4.19,4.19,0,0,0-3.32-1.5c-3.16,0-8.22-.63-11.07,9.18-1.9,6.64,1.9,12.33,6,12.33a10.39,10.39,0,0,0,4.28-1.19.81.81,0,0,1,1.11.44l.1.24a.82.82,0,0,0,.76.51h5.09a.83.83,0,0,0,.81-.67l4.75-25.55a.83.83,0,0,0-.81-1h-4.34A.83.83,0,0,0,428.71,142.33Zm-3.32,16.34-.06.14c-1.26,2.49-2.52,4-4.71,4-1.9,0-3.8-2.21-2.85-5.37,1.26-4.72,5.32-6.62,7.24-4.16l.07.09A7.6,7.6,0,0,1,425.39,158.67Z"/><path class="cls-3" d="M384,147.43c-.95-.27-3-.27-6.28.25a.85.85,0,0,0-.69.66l-.62,3.14a.82.82,0,0,0,.87,1c1.84-.15,4.65-.57,6.19-.57,1.72,0,3.71-.26,3.59,2.05a.82.82,0,0,1-.87.76c-2.9-.18-11.42-.59-12.84,7.62-.63,4.43,3.16,6.65,6,6.65a7.69,7.69,0,0,0,4-.81.81.81,0,0,1,1.13.35h0a.83.83,0,0,0,.74.46h4.18a.82.82,0,0,0,.81-.67l2.09-11c.63-2.83,1.57-9.75-8.11-9.8A.83.83,0,0,1,384,147.43Zm2,13.95c-.31,1.89-3.16,3.16-5.06,2.53-2.21-.64-1.58-2.85.32-4.12a6.09,6.09,0,0,1,4.21-.7.83.83,0,0,1,.73.94Z"/><path class="cls-3" d="M338.82,168.55l4-20.53a.82.82,0,0,1,.81-.67h3.76a.83.83,0,0,1,.79.6l.11.38a.82.82,0,0,0,1.27.44,7.14,7.14,0,0,1,3.58-1.35.83.83,0,0,1,.89,1l-1.11,4a.83.83,0,0,1-.77.6c-1.42,0-3.75.54-5.39,6l0,.09L345,168.2a.82.82,0,0,1-.81.66h-5.33"/></g></g></svg>